<?xml version="1.0" encoding="UTF-8"?>
<svg width="130px" height="40px" viewBox="0 0 130 40" version="1.1" xmlns="http://www.w3.org/2000/svg" xmlns:xlink="http://www.w3.org/1999/xlink">
    <!-- Generator: Sketch 43.2 (39069) - http://www.bohemiancoding.com/sketch -->
    <title>Jello_Logo</title>
    <desc>Created with Sketch.</desc>
    <defs></defs>
    <g id="Page-1" stroke="none" stroke-width="1" fill="none" fill-rule="evenodd">
        <g id="Jello_Logo" fill="#FFFFFF">
            <text id="JELL" font-family="Helvetica" font-size="38" font-weight="normal">
                <tspan x="4" y="34">JELL</tspan>
            </text>
            <g id="Jello" transform="translate(89.000000, 5.000000)" fill-rule="nonzero">
                <path d="M5.95393297,4.03197872 C4.73857297,5.0995 4.03909297,6.71347872 4.03405297,8.34097872 C4.03297297,8.61371277 4.27417297,8.90425532 4.57225297,8.90425532 L4.57333297,8.90425532 C4.87069297,8.90425532 5.11189297,8.61569149 5.11297297,8.34328723 C5.11693297,6.98291489 5.69581297,5.66211702 6.70093297,4.77894681 C7.65889297,3.937 8.90161297,3.49904255 10.297333,3.55180851 C10.589653,3.55444681 10.845613,3.34173404 10.857493,3.069 C10.869013,2.79626596 10.637173,2.56211702 10.339453,2.55156383 C8.66833297,2.49253191 7.11205297,3.01491489 5.95393297,4.03197872 Z" id="Shape"></path>
                <path d="M2.25817297,5.96123404 C2.31757297,5.9803617 2.37805297,5.98926596 2.43781297,5.98926596 C2.66029297,5.98926596 2.86801297,5.86262766 2.94649297,5.65947872 C4.23961297,2.30587234 8.26837297,0.53887234 11.928493,1.72247872 C12.209653,1.81317021 12.517453,1.67828723 12.616453,1.4207234 C12.715453,1.16348936 12.568213,0.881191489 12.287413,0.7905 C8.06749297,-0.5735 3.42061297,1.46359574 1.92913297,5.33068085 C1.83013297,5.58791489 1.97737297,5.87021277 2.25817297,5.96123404 Z" id="Shape"></path>
                <path d="M27.224533,2.94532979 C28.709893,2.94895745 30.114613,3.47892553 31.078333,4.39969149 C31.997053,5.27758511 32.453893,6.43546809 32.399173,7.71306383 C32.387653,7.98546809 32.619853,8.24468085 32.917213,8.24468085 L32.938813,8.24468085 C33.226813,8.24468085 33.465853,8.01778723 33.477373,7.75131915 C33.542533,6.22143617 32.967253,4.79675532 31.857013,3.73582979 C30.691333,2.62246809 29.004013,1.9787234 27.227413,1.9787234 L27.225973,1.9787234 C26.928613,1.9787234 26.687413,2.1881383 26.686693,2.46054255 C26.685613,2.7332766 26.926453,2.94434043 27.224533,2.94532979 Z" id="Shape"></path>
                <path d="M30.079693,0.960670213 C33.740893,2.14526596 35.669053,5.83657447 34.377733,9.1888617 C34.278733,9.44609574 34.425973,9.72839362 34.707133,9.81908511 C34.766533,9.83821277 34.827013,9.84744681 34.886773,9.84744681 C35.108893,9.84744681 35.317333,9.72047872 35.395453,9.51765957 C36.884053,5.65189362 34.660693,1.395 30.438973,0.0286914894 C30.158893,-0.0613404255 29.850013,0.0725531915 29.750653,0.330117021 C29.651293,0.587680851 29.798893,0.869648936 30.079693,0.960670213 Z" id="Shape"></path>
                <path d="M31.47624,15.2666405 C31.05504,13.8340448 30.53052,12.2642576 29.83572,10.3439065 C28.4616,6.54112991 26.58672,5.86638523 24.8886,5.80900225 C24.52788,5.4304065 23.64588,4.68508736 22.29732,4.68508736 C22.06476,4.68508736 21.82788,4.70751289 21.58956,4.75302353 C20.59596,3.87512991 19.15524,3.62515119 17.92692,4.14225757 C16.69968,3.6248214 15.25896,3.87480012 14.265,4.75302353 C14.02704,4.70784267 13.79016,4.68508736 13.55724,4.68508736 C12.20868,4.68508736 11.32632,5.43073629 10.9656,5.80900225 C9.26748,5.86638523 7.39332,6.5414597 6.0192,10.3439065 C5.3244,12.2645874 4.79988,13.8340448 4.37868,15.2666405 C1.65456,16.8799597 0,18.9810342 0,21.2776725 C0,26.3478214 8.04204,30.4728001 17.92692,30.4728001 C27.81216,30.4728001 35.85492,26.3478214 35.85492,21.2776725 C35.85528,18.9810342 34.20072,16.8799597 31.47624,15.2666405 Z M23.17788,8.14422565 C23.26572,7.67955544 23.5728,7.27985331 24.02064,7.04801289 C24.27984,6.9134597 24.60888,6.99722565 24.75576,7.23467246 C24.90228,7.47211927 24.8112,7.7735448 24.552,7.90809799 C24.38676,7.99351289 24.27336,8.14125757 24.24096,8.31241714 C24.1956,8.55283204 23.96772,8.72234267 23.70996,8.72234267 C23.67972,8.72234267 23.64876,8.72003416 23.61744,8.71508736 C23.32404,8.66858736 23.12748,8.41300225 23.17788,8.14422565 Z M18.09828,9.75523629 C19.19808,8.72564055 21.06396,8.11322565 22.81284,8.85755544 C23.08284,8.97265119 23.2002,9.26649161 23.07456,9.51383204 C22.94928,9.76117246 22.62816,9.86901289 22.35816,9.75358736 C20.95668,9.15634267 19.33668,9.7964597 18.58032,10.7594384 C18.48456,10.8811299 18.33372,10.9566512 18.17028,10.9645661 C18.16092,10.9648959 18.15156,10.9652257 18.1422,10.9652257 C17.98848,10.9652257 17.84196,10.9052044 17.73936,10.7996725 C16.57944,9.6051831 14.49576,10.0184065 14.47488,10.0230235 C14.18472,10.0820554 13.896,9.91584267 13.83012,9.64970438 C13.7646,9.38356608 13.94748,9.11907672 14.238,9.05905544 C14.3388,9.03827884 16.5186,8.60724693 18.09828,9.75523629 Z M21.47688,19.9713852 C21.50676,20.2431299 21.2904,20.4851937 20.99412,20.5125661 C20.97576,20.514215 20.9574,20.5148746 20.9394,20.5148746 C20.6658,20.5148746 20.43144,20.3249171 20.40336,20.0703214 L19.82736,14.8267044 C19.79748,14.5549597 20.01348,14.3128959 20.30976,14.2855235 C20.60748,14.2591405 20.87064,14.4563533 20.90052,14.7277682 L21.47688,19.9713852 Z M14.07168,24.0505235 C14.14584,24.3146831 13.97196,24.5841193 13.6836,24.6520554 C13.6386,24.6626086 13.5936,24.6678852 13.54896,24.6678852 C13.30884,24.6678852 13.0896,24.5198108 13.02696,24.2968746 C12.19608,21.335715 13.4514,16.3361405 13.833,15.1591299 C13.91796,14.8979384 14.21748,14.7488746 14.50368,14.8260448 C14.78916,14.9038746 14.95188,15.1789171 14.86692,15.4404384 C14.52564,16.4937788 13.31028,21.3367044 14.07168,24.0505235 Z M15.39216,5.93662991 C15.83424,5.4511831 16.5474,5.25594906 17.20836,5.43964055 C17.49348,5.51878948 17.6544,5.7948214 17.568,6.0556831 C17.4816,6.3165448 17.17956,6.4639597 16.89552,6.38547033 C16.64964,6.31687459 16.38468,6.38942778 16.22052,6.5698214 C16.11396,6.68689587 15.9606,6.74757672 15.80616,6.74757672 C15.68448,6.74757672 15.56172,6.70998097 15.46092,6.63281076 C15.23196,6.45769374 15.20136,6.1460448 15.39216,5.93662991 Z M12.02076,7.16343842 C12.186,6.77165119 12.50784,6.46264055 12.92688,6.29280012 C13.34592,6.1229597 13.81248,6.11273629 14.23944,6.26410863 C14.517,6.36271501 14.65524,6.64897033 14.5476,6.90323629 C14.44032,7.15750225 14.1282,7.28414055 13.84992,7.18553416 C13.69152,7.12947033 13.51908,7.13309799 13.3632,7.19608736 C13.20768,7.25907672 13.08816,7.37417246 13.0266,7.51960863 C12.94416,7.71550225 12.73968,7.8355448 12.52368,7.8355448 C12.45888,7.8355448 12.393,7.82499161 12.32928,7.80223629 C12.05136,7.7039597 11.91312,7.41803416 12.02076,7.16343842 Z M8.75952,15.5054065 C8.90316,15.1314278 9.03852,14.7782257 9.13608,14.4843852 C9.22284,14.2231937 9.52488,14.0757788 9.80892,14.1552576 C10.09404,14.2347363 10.2546,14.5107682 10.1682,14.7716299 C10.0638,15.0862469 9.92448,15.4493427 9.77688,15.8335448 C9.05688,17.7093746 8.07012,20.2784171 9.2556,21.7654278 C9.43128,21.9857257 9.37872,22.2947363 9.13824,22.4560022 C9.04212,22.5203108 8.93088,22.550981 8.82072,22.550981 C8.6544,22.550981 8.4906,22.4807363 8.38476,22.3484916 C6.86412,20.4406725 8.00496,17.4709384 8.75952,15.5054065 Z M6.07572,14.6416937 C6.27624,14.1090874 6.4836,13.5580129 6.68088,12.9568108 C6.76656,12.6952895 7.06716,12.5468852 7.35264,12.6257044 C7.63776,12.7041937 7.79976,12.9795661 7.71372,13.2410874 C7.51032,13.8617469 7.28964,14.4474491 7.09524,14.9638959 C6.34428,16.9594384 5.98896,18.038832 6.77772,18.8553852 C6.975,19.0595235 6.95412,19.371832 6.73092,19.5525554 C6.62832,19.6356618 6.50088,19.6765554 6.3738,19.6765554 C6.22476,19.6765554 6.07608,19.6204916 5.96952,19.5100129 C4.72788,18.2235129 5.32296,16.6428427 6.07572,14.6416937 Z M17.92728,29.4847576 C8.63712,29.4847576 1.07892,25.8030129 1.07892,21.2776725 C1.07892,19.5730022 2.15244,17.9880448 3.98664,16.6745022 C3.86136,17.1520342 3.74544,17.6213214 3.63744,18.0909384 C3.2094,19.9525874 4.41648,20.9782257 5.35212,21.3726512 C5.39964,21.8478746 5.5944,22.6779491 6.33888,23.3055342 C7.43544,24.2305874 8.96472,24.4050448 9.67392,24.4337363 C9.92304,24.9003852 10.57068,25.6404278 12.25512,26.2891193 C13.15044,26.6337469 14.05548,26.8085342 14.9454,26.8085342 C16.37352,26.8085342 17.4222,26.3590342 17.928,26.0859703 C18.43488,26.3590342 19.48644,26.8085342 20.90988,26.8085342 C21.7998,26.8085342 22.7052,26.6337469 23.60052,26.2891193 C25.28532,25.6404278 25.9326,24.9003852 26.181,24.4337363 C26.89056,24.4050448 28.4202,24.2305874 29.51748,23.3055342 C30.2616,22.6776193 30.45528,21.8478746 30.50316,21.3726512 C31.4388,20.9782257 32.64624,19.9522576 32.2182,18.0909384 C32.1102,17.6213214 31.99428,17.1517044 31.869,16.6745022 C33.7032,17.9880448 34.77672,19.5730022 34.77672,21.2776725 C34.77636,25.8030129 27.2178,29.4847576 17.92728,29.4847576 Z" id="Shape"></path>
            </g>
        </g>
    </g>
</svg>