<?xml version="1.0" encoding="UTF-8"?>
<svg width="100px" height="100px" viewBox="0 0 100 100" version="1.1" xmlns="http://www.w3.org/2000/svg" xmlns:xlink="http://www.w3.org/1999/xlink">
    <!-- Generator: Sketch 43.2 (39069) - http://www.bohemiancoding.com/sketch -->
    <title>Jello_Square</title>
    <desc>Created with Sketch.</desc>
    <defs></defs>
    <g id="Page-1" stroke="none" stroke-width="1" fill="none" fill-rule="evenodd">
        <g id="Jello_Square" fill-rule="nonzero" fill="#000000">
            <g id="Jello" transform="translate(8.000000, 15.000000)">
                <path d="M13.8925103,9.36459574 C11.0566703,11.844 9.42455027,15.5925957 9.41279027,19.3725957 C9.41027027,20.0060426 9.97307027,20.6808511 10.6685903,20.6808511 L10.6711103,20.6808511 C11.3649503,20.6808511 11.9277503,20.0106383 11.9302703,19.3779574 C11.9395103,16.218383 13.2902303,13.1507234 15.6355103,11.0994894 C17.8707503,9.144 20.7704303,8.12680851 24.0271103,8.2493617 C24.7091903,8.25548936 25.3064303,7.76144681 25.3341503,7.128 C25.3610303,6.49455319 24.8200703,5.9507234 24.1253903,5.92621277 C20.2261103,5.78910638 16.5947903,7.00238298 13.8925103,9.36459574 Z" id="Shape"></path>
                <path d="M5.26907027,13.8454468 C5.40767027,13.8898723 5.54879027,13.9105532 5.68823027,13.9105532 C6.20735027,13.9105532 6.69203027,13.6164255 6.87515027,13.1445957 C9.89243027,5.35557447 19.2928703,1.25157447 27.8331503,4.00059574 C28.4891903,4.21123404 29.2073903,3.89795745 29.4383903,3.29974468 C29.6693903,2.70229787 29.3258303,2.0466383 28.6706303,1.836 C18.8241503,-1.332 7.98143027,3.39931915 4.50131027,12.3809362 C4.27031027,12.978383 4.61387027,13.6340426 5.26907027,13.8454468 Z" id="Shape"></path>
                <path d="M63.5239103,6.84076596 C66.9897503,6.84919149 70.2674303,8.08008511 72.5161103,10.2186383 C74.6597903,12.257617 75.7257503,14.9468936 75.5980703,17.9142128 C75.5711903,18.5468936 76.1129903,19.1489362 76.8068303,19.1489362 L76.8572303,19.1489362 C77.5292303,19.1489362 78.0869903,18.6219574 78.1138703,18.0030638 C78.2659103,14.4497872 76.9235903,11.1408511 74.3330303,8.67676596 C71.6131103,6.09089362 67.6760303,4.59574468 63.5306303,4.59574468 L63.5272703,4.59574468 C62.8334303,4.59574468 62.2706303,5.08212766 62.2689503,5.71480851 C62.2664303,6.34825532 62.8283903,6.83846809 63.5239103,6.84076596 Z" id="Shape"></path>
                <path d="M70.1859503,2.23123404 C78.7287503,4.98255319 83.2277903,13.5559149 80.2147103,21.3418723 C79.9837103,21.9393191 80.3272703,22.5949787 80.9833103,22.805617 C81.1219103,22.8500426 81.2630303,22.8714894 81.4024703,22.8714894 C81.9207503,22.8714894 82.4071103,22.5765957 82.5893903,22.1055319 C86.0627903,13.1269787 80.8749503,3.24 71.0242703,0.0666382979 C70.3707503,-0.142468085 69.6500303,0.168510638 69.4181903,0.766723404 C69.1863503,1.36493617 69.5307503,2.01982979 70.1859503,2.23123404 Z" id="Shape"></path>
                <path d="M73.44456,35.4580039 C72.46176,32.1306847 71.23788,28.4847273 69.61668,24.024557 C66.4104,15.1923017 62.03568,13.6251528 58.0734,13.4918762 C57.23172,12.612557 55.17372,10.8814932 52.02708,10.8814932 C51.48444,10.8814932 50.93172,10.9335783 50.37564,11.0392804 C48.05724,9.00030172 44.69556,8.41970598 41.82948,9.62072725 C38.96592,8.41894002 35.60424,8.99953577 33.285,11.0392804 C32.72976,10.9343443 32.17704,10.8814932 31.63356,10.8814932 C28.48692,10.8814932 26.42808,12.613323 25.5864,13.4918762 C21.62412,13.6251528 17.25108,15.1930677 14.0448,24.024557 C12.4236,28.4854932 11.19972,32.1306847 10.21692,35.4580039 C3.86064,39.2050677 0,44.0849826 0,49.4191102 C0,61.19494 18.76476,70.7755358 41.82948,70.7755358 C64.89504,70.7755358 83.66148,61.19494 83.66148,49.4191102 C83.66232,44.0849826 79.80168,39.2050677 73.44456,35.4580039 Z M54.08172,18.9156209 C54.28668,17.8363868 55.0032,16.9080464 56.04816,16.3695783 C56.65296,16.0570677 57.42072,16.2516209 57.76344,16.8031102 C58.10532,17.3545996 57.8928,18.0546847 57.288,18.3671953 C56.90244,18.5655783 56.63784,18.9087273 56.56224,19.3062592 C56.4564,19.8646421 55.92468,20.2583443 55.32324,20.2583443 C55.25268,20.2583443 55.18044,20.2529826 55.10736,20.2414932 C54.42276,20.1334932 53.96412,19.5398762 54.08172,18.9156209 Z M42.22932,22.657323 C44.79552,20.2660039 49.14924,18.8436209 53.22996,20.5723868 C53.85996,20.839706 54.1338,21.5221741 53.84064,22.0966421 C53.54832,22.6711102 52.79904,22.9215783 52.16904,22.6534932 C48.89892,21.2663443 45.11892,22.7530677 43.35408,24.9896634 C43.13064,25.2723017 42.77868,25.447706 42.39732,25.466089 C42.37548,25.4668549 42.35364,25.4676209 42.3318,25.4676209 C41.97312,25.4676209 41.63124,25.3282166 41.39184,25.0831102 C38.68536,22.3088124 33.82344,23.268557 33.77472,23.2792804 C33.09768,23.4163868 32.424,23.0303443 32.27028,22.4122166 C32.1174,21.794089 32.54412,21.1797911 33.222,21.0403868 C33.4572,20.9921315 38.5434,19.9910251 42.22932,22.657323 Z M50.11272,46.3851528 C50.18244,47.0163017 49.6776,47.5785145 48.98628,47.642089 C48.94344,47.6459187 48.9006,47.6474507 48.8586,47.6474507 C48.2202,47.6474507 47.67336,47.2062592 47.60784,46.61494 L46.26384,34.4362166 C46.19412,33.8050677 46.69812,33.2428549 47.38944,33.1792804 C48.08412,33.1180039 48.69816,33.5760464 48.76788,34.2064294 L50.11272,46.3851528 Z M32.83392,55.8592804 C33.00696,56.4728124 32.60124,57.0985996 31.9284,57.2563868 C31.8234,57.2808975 31.7184,57.2931528 31.61424,57.2931528 C31.05396,57.2931528 30.5424,56.9492379 30.39624,56.4314507 C28.45752,49.5539187 31.3866,37.9420039 32.277,35.2083017 C32.47524,34.6016634 33.17412,34.2554507 33.84192,34.4346847 C34.50804,34.6154507 34.88772,35.2542592 34.68948,35.8616634 C33.89316,38.3081315 31.05732,49.5562166 32.83392,55.8592804 Z M35.91504,13.7883017 C36.94656,12.6608124 38.6106,12.2073656 40.15284,12.6340039 C40.81812,12.8178336 41.1936,13.45894 40.992,14.0648124 C40.7904,14.6706847 40.08564,15.0130677 39.42288,14.8307698 C38.84916,14.6714507 38.23092,14.8399613 37.84788,15.25894 C37.59924,15.5308549 37.2414,15.6717911 36.88104,15.6717911 C36.59712,15.6717911 36.31068,15.5844719 36.07548,15.4052379 C35.54124,14.9985145 35.46984,14.2746847 35.91504,13.7883017 Z M28.04844,16.6376634 C28.434,15.727706 29.18496,15.0100039 30.16272,14.6155358 C31.14048,14.2210677 32.22912,14.197323 33.22536,14.5488975 C33.873,14.7779187 34.19556,15.4427698 33.9444,16.033323 C33.69408,16.6238762 32.9658,16.9180039 32.31648,16.6889826 C31.94688,16.5587698 31.54452,16.5671953 31.1808,16.7134932 C30.81792,16.8597911 30.53904,17.1271102 30.3954,17.4648975 C30.20304,17.9198762 29.72592,18.1986847 29.22192,18.1986847 C29.07072,18.1986847 28.917,18.1741741 28.76832,18.121323 C28.11984,17.8930677 27.79728,17.2289826 28.04844,16.6376634 Z M20.43888,36.012557 C20.77404,35.1439613 21.08988,34.3236209 21.31752,33.6411528 C21.51996,33.0345145 22.22472,32.6921315 22.88748,32.8767273 C23.55276,33.061323 23.9274,33.7024294 23.7258,34.3083017 C23.4822,35.0390251 23.15712,35.8823443 22.81272,36.7746847 C21.13272,41.1314507 18.83028,47.0982592 21.5964,50.5519613 C22.00632,51.0636209 21.88368,51.781323 21.32256,52.1558762 C21.09828,52.3052379 20.83872,52.3764719 20.58168,52.3764719 C20.1936,52.3764719 19.8114,52.213323 19.56444,51.9061741 C16.01628,47.4751102 18.67824,40.5776634 20.43888,36.012557 Z M14.17668,34.0065145 C14.64456,32.7694932 15.1284,31.4895783 15.58872,30.0932379 C15.78864,29.4858336 16.49004,29.1411528 17.15616,29.3242166 C17.82144,29.5065145 18.19944,30.146089 17.99868,30.7534932 C17.52408,32.1950251 17.00916,33.5553656 16.55556,34.7548549 C14.80332,39.3896634 13.97424,41.8966421 15.81468,43.7931528 C16.275,44.2672804 16.22628,44.9926421 15.70548,45.4123868 C15.46608,45.6054081 15.16872,45.7003868 14.8722,45.7003868 C14.52444,45.7003868 14.17752,45.5701741 13.92888,45.3135783 C11.03172,42.3255783 12.42024,38.6543443 14.17668,34.0065145 Z M41.83032,68.4807273 C20.15328,68.4807273 2.51748,59.9295783 2.51748,49.4191102 C2.51748,45.4598762 5.02236,41.7786847 9.30216,38.7278762 C9.00984,39.8369826 8.73936,40.92694 8.48736,42.0176634 C7.4886,46.3414932 10.30512,48.7236209 12.48828,49.639706 C12.59916,50.7434507 13.0536,52.6713656 14.79072,54.1289826 C17.34936,56.2774932 20.91768,56.6826847 22.57248,56.749323 C23.15376,57.8331528 24.66492,59.5519613 28.59528,61.0585996 C30.68436,61.8590251 32.79612,62.2649826 34.8726,62.2649826 C38.20488,62.2649826 40.6518,61.2209826 41.832,60.5867698 C43.01472,61.2209826 45.46836,62.2649826 48.78972,62.2649826 C50.8662,62.2649826 52.9788,61.8590251 55.06788,61.0585996 C58.99908,59.5519613 60.5094,57.8331528 61.089,56.749323 C62.74464,56.6826847 66.3138,56.2774932 68.87412,54.1289826 C70.6104,52.6705996 71.06232,50.7434507 71.17404,49.639706 C73.3572,48.7236209 76.17456,46.3407273 75.1758,42.0176634 C74.9238,40.92694 74.65332,39.8362166 74.361,38.7278762 C78.6408,41.7786847 81.14568,45.4598762 81.14568,49.4191102 C81.14484,59.9295783 63.5082,68.4807273 41.83032,68.4807273 Z" id="Shape"></path>
            </g>
        </g>
    </g>
</svg>